<?xml version="1.0" encoding="UTF-8"?>
<svg xmlns="http://www.w3.org/2000/svg" width="960" height="540" viewBox="0 0 960 540">
<rect width="100%" height="100%" fill="#ffffff" />
<text x="480.00" y="30" text-anchor="middle" font-size="24" fill="#1f2933">Hypersphere fitness history</text>
<text x="480.00" y="522" text-anchor="middle" font-size="14" fill="#52606d">Epoch</text>
<text x="24" y="270.00" text-anchor="middle" font-size="14" fill="#52606d" transform="rotate(-90 24 270.00)">Best fitness</text>
<line x1="88" y1="60.00" x2="928" y2="60.00" stroke="#d0d7de" stroke-width="1" />
<text x="76" y="64.00" text-anchor="end" fill="#3d4955" font-size="12">2.29634</text>
<line x1="88" y1="141.60" x2="928" y2="141.60" stroke="#d0d7de" stroke-width="1" />
<text x="76" y="145.60" text-anchor="end" fill="#3d4955" font-size="12">1.79533</text>
<line x1="88" y1="223.20" x2="928" y2="223.20" stroke="#d0d7de" stroke-width="1" />
<text x="76" y="227.20" text-anchor="end" fill="#3d4955" font-size="12">1.29431</text>
<line x1="88" y1="304.80" x2="928" y2="304.80" stroke="#d0d7de" stroke-width="1" />
<text x="76" y="308.80" text-anchor="end" fill="#3d4955" font-size="12">0.793299</text>
<line x1="88" y1="386.40" x2="928" y2="386.40" stroke="#d0d7de" stroke-width="1" />
<text x="76" y="390.40" text-anchor="end" fill="#3d4955" font-size="12">0.292284</text>
<line x1="88" y1="468.00" x2="928" y2="468.00" stroke="#d0d7de" stroke-width="1" />
<text x="76" y="472.00" text-anchor="end" fill="#3d4955" font-size="12">-0.20873</text>
<line x1="88.00" y1="60" x2="88.00" y2="468" stroke="#e6ebf0" stroke-width="1" />
<text x="88.00" y="492" text-anchor="middle" fill="#3d4955" font-size="12">1</text>
<line x1="508.00" y1="60" x2="508.00" y2="468" stroke="#e6ebf0" stroke-width="1" />
<text x="508.00" y="492" text-anchor="middle" fill="#3d4955" font-size="12">88</text>
<line x1="928.00" y1="60" x2="928.00" y2="468" stroke="#e6ebf0" stroke-width="1" />
<text x="928.00" y="492" text-anchor="middle" fill="#3d4955" font-size="12">175</text>
<line x1="88" y1="468" x2="928" y2="468" stroke="#52606d" stroke-width="2" />
<line x1="88" y1="60" x2="88" y2="468" stroke="#52606d" stroke-width="2" />
<polyline fill="none" stroke="#0b84f3" stroke-width="3" points="88.00,94.00 92.83,94.00 97.66,243.16 102.48,300.43 107.31,414.46 112.14,420.90 116.97,420.90 121.79,420.93 126.62,421.34 131.45,421.48 136.28,421.57 141.10,421.77 145.93,421.77 150.76,421.81 155.59,421.89 160.41,421.90 165.24,421.93 170.07,421.94 174.90,421.94 179.72,421.94 184.55,428.93 189.38,428.93 194.21,428.93 199.03,428.93 203.86,428.93 208.69,428.93 213.52,428.93 218.34,428.93 223.17,428.93 228.00,428.93 232.83,429.77 237.66,429.95 242.48,429.95 247.31,429.96 252.14,429.96 256.97,429.96 261.79,429.96 266.62,429.96 271.45,429.96 276.28,429.96 281.10,429.96 285.93,429.96 290.76,429.96 295.59,429.96 300.41,429.96 305.24,429.98 310.07,429.98 314.90,429.98 319.72,432.46 324.55,432.46 329.38,432.46 334.21,432.69 339.03,432.70 343.86,432.70 348.69,432.70 353.52,432.70 358.34,432.70 363.17,432.70 368.00,432.70 372.83,432.70 377.66,432.70 382.48,433.23 387.31,433.23 392.14,433.23 396.97,433.59 401.79,433.59 406.62,433.59 411.45,433.59 416.28,433.59 421.10,433.59 425.93,433.60 430.76,433.60 435.59,433.60 440.41,433.60 445.24,433.60 450.07,433.60 454.90,433.60 459.72,433.60 464.55,433.60 469.38,433.60 474.21,433.60 479.03,433.60 483.86,433.60 488.69,433.60 493.52,433.64 498.34,433.64 503.17,433.64 508.00,433.65 512.83,433.65 517.66,433.65 522.48,433.65 527.31,433.65 532.14,433.65 536.97,433.65 541.79,433.65 546.62,433.65 551.45,433.65 556.28,433.65 561.10,433.65 565.93,433.65 570.76,433.65 575.59,433.65 580.41,433.65 585.24,433.65 590.07,433.65 594.90,433.65 599.72,433.65 604.55,433.65 609.38,433.65 614.21,433.65 619.03,433.65 623.86,433.67 628.69,433.67 633.52,433.67 638.34,433.67 643.17,433.67 648.00,433.67 652.83,433.67 657.66,433.67 662.48,433.67 667.31,433.67 672.14,433.67 676.97,433.67 681.79,433.67 686.62,433.67 691.45,433.67 696.28,433.67 701.10,433.67 705.93,433.67 710.76,433.67 715.59,433.67 720.41,433.90 725.24,433.90 730.07,433.90 734.90,433.90 739.72,433.90 744.55,433.90 749.38,433.90 754.21,433.90 759.03,433.90 763.86,433.90 768.69,433.90 773.52,433.90 778.34,433.90 783.17,433.90 788.00,433.90 792.83,433.91 797.66,433.91 802.48,433.91 807.31,433.91 812.14,433.91 816.97,433.91 821.79,433.91 826.62,433.91 831.45,433.91 836.28,433.91 841.10,433.91 845.93,433.91 850.76,433.91 855.59,433.91 860.41,434.00 865.24,434.00 870.07,434.00 874.90,434.00 879.72,434.00 884.55,434.00 889.38,434.00 894.21,434.00 899.03,434.00 903.86,434.00 908.69,434.00 913.52,434.00 918.34,434.00 923.17,434.00 928.00,434.00" />
<circle cx="928.00" cy="434.00" r="5" fill="#d94841" stroke="#ffffff" stroke-width="2" />
<text x="928.00" y="422.00" text-anchor="middle" font-size="12" fill="#7b341e">2.59911e-05</text>
</svg>