<?xml version="1.0" encoding="UTF-8"?>
<svg xmlns="http://www.w3.org/2000/svg" width="960" height="540" viewBox="0 0 960 540">
<rect width="100%" height="100%" fill="#ffffff" />
<text x="480.00" y="30" text-anchor="middle" font-size="24" fill="#1f2933">Hypersphere fitness history</text>
<text x="480.00" y="522" text-anchor="middle" font-size="14" fill="#52606d">Epoch</text>
<text x="24" y="270.00" text-anchor="middle" font-size="14" fill="#52606d" transform="rotate(-90 24 270.00)">Best fitness</text>
<line x1="88" y1="60.00" x2="928" y2="60.00" stroke="#d0d7de" stroke-width="1" />
<text x="76" y="64.00" text-anchor="end" fill="#3d4955" font-size="12">3.23911</text>
<line x1="88" y1="141.60" x2="928" y2="141.60" stroke="#d0d7de" stroke-width="1" />
<text x="76" y="145.60" text-anchor="end" fill="#3d4955" font-size="12">2.5324</text>
<line x1="88" y1="223.20" x2="928" y2="223.20" stroke="#d0d7de" stroke-width="1" />
<text x="76" y="227.20" text-anchor="end" fill="#3d4955" font-size="12">1.82568</text>
<line x1="88" y1="304.80" x2="928" y2="304.80" stroke="#d0d7de" stroke-width="1" />
<text x="76" y="308.80" text-anchor="end" fill="#3d4955" font-size="12">1.11897</text>
<line x1="88" y1="386.40" x2="928" y2="386.40" stroke="#d0d7de" stroke-width="1" />
<text x="76" y="390.40" text-anchor="end" fill="#3d4955" font-size="12">0.412255</text>
<line x1="88" y1="468.00" x2="928" y2="468.00" stroke="#d0d7de" stroke-width="1" />
<text x="76" y="472.00" text-anchor="end" fill="#3d4955" font-size="12">-0.294459</text>
<line x1="88.00" y1="60" x2="88.00" y2="468" stroke="#e6ebf0" stroke-width="1" />
<text x="88.00" y="492" text-anchor="middle" fill="#3d4955" font-size="12">1</text>
<line x1="508.00" y1="60" x2="508.00" y2="468" stroke="#e6ebf0" stroke-width="1" />
<text x="508.00" y="492" text-anchor="middle" fill="#3d4955" font-size="12">88</text>
<line x1="928.00" y1="60" x2="928.00" y2="468" stroke="#e6ebf0" stroke-width="1" />
<text x="928.00" y="492" text-anchor="middle" fill="#3d4955" font-size="12">175</text>
<line x1="88" y1="468" x2="928" y2="468" stroke="#52606d" stroke-width="2" />
<line x1="88" y1="60" x2="88" y2="468" stroke="#52606d" stroke-width="2" />
<polyline fill="none" stroke="#0b84f3" stroke-width="3" points="88.00,94.00 92.83,94.00 97.66,94.00 102.48,148.78 107.31,209.87 112.14,209.87 116.97,262.68 121.79,262.88 126.62,262.88 131.45,262.88 136.28,323.30 141.10,329.44 145.93,332.12 150.76,343.10 155.59,354.30 160.41,354.30 165.24,382.16 170.07,384.21 174.90,384.21 179.72,384.21 184.55,384.21 189.38,384.21 194.21,384.21 199.03,413.85 203.86,419.57 208.69,419.57 213.52,419.57 218.34,430.85 223.17,430.85 228.00,430.85 232.83,430.85 237.66,430.85 242.48,430.85 247.31,430.85 252.14,430.85 256.97,430.85 261.79,430.85 266.62,430.85 271.45,430.88 276.28,430.88 281.10,430.88 285.93,432.37 290.76,432.37 295.59,432.37 300.41,432.99 305.24,432.99 310.07,432.99 314.90,432.99 319.72,432.99 324.55,432.99 329.38,432.99 334.21,432.99 339.03,432.99 343.86,432.99 348.69,432.99 353.52,433.02 358.34,433.02 363.17,433.02 368.00,433.02 372.83,433.02 377.66,433.02 382.48,433.02 387.31,433.02 392.14,433.02 396.97,433.05 401.79,433.05 406.62,433.45 411.45,433.45 416.28,433.45 421.10,433.78 425.93,433.78 430.76,433.78 435.59,433.78 440.41,433.78 445.24,433.78 450.07,433.78 454.90,433.78 459.72,433.78 464.55,433.78 469.38,433.78 474.21,433.78 479.03,433.78 483.86,433.78 488.69,433.96 493.52,433.96 498.34,433.96 503.17,433.99 508.00,433.99 512.83,433.99 517.66,433.99 522.48,433.99 527.31,433.99 532.14,433.99 536.97,433.99 541.79,433.99 546.62,433.99 551.45,433.99 556.28,433.99 561.10,433.99 565.93,433.99 570.76,433.99 575.59,433.99 580.41,433.99 585.24,433.99 590.07,433.99 594.90,433.99 599.72,433.99 604.55,433.99 609.38,433.99 614.21,433.99 619.03,433.99 623.86,433.99 628.69,433.99 633.52,433.99 638.34,433.99 643.17,433.99 648.00,433.99 652.83,433.99 657.66,433.99 662.48,433.99 667.31,433.99 672.14,433.99 676.97,433.99 681.79,433.99 686.62,433.99 691.45,433.99 696.28,433.99 701.10,433.99 705.93,433.99 710.76,433.99 715.59,433.99 720.41,433.99 725.24,433.99 730.07,433.99 734.90,433.99 739.72,433.99 744.55,433.99 749.38,433.99 754.21,433.99 759.03,433.99 763.86,433.99 768.69,433.99 773.52,433.99 778.34,433.99 783.17,433.99 788.00,433.99 792.83,433.99 797.66,433.99 802.48,433.99 807.31,433.99 812.14,433.99 816.97,434.00 821.79,434.00 826.62,434.00 831.45,434.00 836.28,434.00 841.10,434.00 845.93,434.00 850.76,434.00 855.59,434.00 860.41,434.00 865.24,434.00 870.07,434.00 874.90,434.00 879.72,434.00 884.55,434.00 889.38,434.00 894.21,434.00 899.03,434.00 903.86,434.00 908.69,434.00 913.52,434.00 918.34,434.00 923.17,434.00 928.00,434.00" />
<circle cx="928.00" cy="434.00" r="5" fill="#d94841" stroke="#ffffff" stroke-width="2" />
<text x="928.00" y="422.00" text-anchor="middle" font-size="12" fill="#7b341e">4.89764e-06</text>
</svg>