<?xml version="1.0" encoding="UTF-8"?>
<svg xmlns="http://www.w3.org/2000/svg" width="960" height="540" viewBox="0 0 960 540">
<rect width="100%" height="100%" fill="#ffffff" />
<text x="480.00" y="30" text-anchor="middle" font-size="24" fill="#1f2933">Hypersphere fitness history</text>
<text x="480.00" y="522" text-anchor="middle" font-size="14" fill="#52606d">Epoch</text>
<text x="24" y="270.00" text-anchor="middle" font-size="14" fill="#52606d" transform="rotate(-90 24 270.00)">Best fitness</text>
<line x1="88" y1="60.00" x2="928" y2="60.00" stroke="#d0d7de" stroke-width="1" />
<text x="76" y="64.00" text-anchor="end" fill="#3d4955" font-size="12">0.391422</text>
<line x1="88" y1="141.60" x2="928" y2="141.60" stroke="#d0d7de" stroke-width="1" />
<text x="76" y="145.60" text-anchor="end" fill="#3d4955" font-size="12">0.306022</text>
<line x1="88" y1="223.20" x2="928" y2="223.20" stroke="#d0d7de" stroke-width="1" />
<text x="76" y="227.20" text-anchor="end" fill="#3d4955" font-size="12">0.220622</text>
<line x1="88" y1="304.80" x2="928" y2="304.80" stroke="#d0d7de" stroke-width="1" />
<text x="76" y="308.80" text-anchor="end" fill="#3d4955" font-size="12">0.135222</text>
<line x1="88" y1="386.40" x2="928" y2="386.40" stroke="#d0d7de" stroke-width="1" />
<text x="76" y="390.40" text-anchor="end" fill="#3d4955" font-size="12">0.0498214</text>
<line x1="88" y1="468.00" x2="928" y2="468.00" stroke="#d0d7de" stroke-width="1" />
<text x="76" y="472.00" text-anchor="end" fill="#3d4955" font-size="12">-0.0355788</text>
<line x1="88.00" y1="60" x2="88.00" y2="468" stroke="#e6ebf0" stroke-width="1" />
<text x="88.00" y="492" text-anchor="middle" fill="#3d4955" font-size="12">1</text>
<line x1="508.00" y1="60" x2="508.00" y2="468" stroke="#e6ebf0" stroke-width="1" />
<text x="508.00" y="492" text-anchor="middle" fill="#3d4955" font-size="12">88</text>
<line x1="928.00" y1="60" x2="928.00" y2="468" stroke="#e6ebf0" stroke-width="1" />
<text x="928.00" y="492" text-anchor="middle" fill="#3d4955" font-size="12">175</text>
<line x1="88" y1="468" x2="928" y2="468" stroke="#52606d" stroke-width="2" />
<line x1="88" y1="60" x2="88" y2="468" stroke="#52606d" stroke-width="2" />
<polyline fill="none" stroke="#0b84f3" stroke-width="3" points="88.00,94.00 92.83,94.00 97.66,149.53 102.48,149.53 107.31,149.53 112.14,149.53 116.97,149.53 121.79,149.53 126.62,251.13 131.45,251.13 136.28,251.13 141.10,251.13 145.93,251.13 150.76,292.39 155.59,292.39 160.41,327.49 165.24,327.49 170.07,327.49 174.90,327.49 179.72,327.49 184.55,367.09 189.38,368.61 194.21,368.61 199.03,368.61 203.86,368.61 208.69,368.61 213.52,368.61 218.34,368.61 223.17,368.61 228.00,371.26 232.83,371.26 237.66,398.32 242.48,398.32 247.31,398.32 252.14,398.32 256.97,398.32 261.79,398.32 266.62,398.32 271.45,398.32 276.28,398.32 281.10,398.32 285.93,398.32 290.76,398.32 295.59,398.32 300.41,398.32 305.24,398.32 310.07,398.32 314.90,398.32 319.72,398.32 324.55,398.32 329.38,398.32 334.21,398.75 339.03,398.75 343.86,398.76 348.69,398.76 353.52,398.76 358.34,398.76 363.17,398.76 368.00,402.33 372.83,402.33 377.66,402.33 382.48,402.33 387.31,402.35 392.14,402.35 396.97,402.35 401.79,402.35 406.62,402.35 411.45,410.00 416.28,410.00 421.10,410.00 425.93,410.00 430.76,410.00 435.59,410.00 440.41,410.00 445.24,410.00 450.07,410.00 454.90,410.12 459.72,410.12 464.55,410.12 469.38,432.00 474.21,432.00 479.03,432.11 483.86,432.11 488.69,432.11 493.52,432.11 498.34,432.11 503.17,432.11 508.00,432.11 512.83,432.13 517.66,432.28 522.48,432.28 527.31,432.28 532.14,432.28 536.97,432.28 541.79,432.28 546.62,432.32 551.45,432.32 556.28,432.32 561.10,432.32 565.93,432.32 570.76,432.49 575.59,432.66 580.41,432.66 585.24,433.72 590.07,433.72 594.90,433.72 599.72,433.72 604.55,433.72 609.38,433.77 614.21,433.77 619.03,433.83 623.86,433.83 628.69,433.89 633.52,433.89 638.34,433.89 643.17,433.89 648.00,433.89 652.83,433.89 657.66,433.89 662.48,433.89 667.31,433.89 672.14,433.97 676.97,433.97 681.79,433.97 686.62,433.97 691.45,433.98 696.28,433.98 701.10,433.99 705.93,433.99 710.76,433.99 715.59,433.99 720.41,433.99 725.24,433.99 730.07,433.99 734.90,433.99 739.72,433.99 744.55,433.99 749.38,433.99 754.21,433.99 759.03,433.99 763.86,433.99 768.69,433.99 773.52,433.99 778.34,433.99 783.17,434.00 788.00,434.00 792.83,434.00 797.66,434.00 802.48,434.00 807.31,434.00 812.14,434.00 816.97,434.00 821.79,434.00 826.62,434.00 831.45,434.00 836.28,434.00 841.10,434.00 845.93,434.00 850.76,434.00 855.59,434.00 860.41,434.00 865.24,434.00 870.07,434.00 874.90,434.00 879.72,434.00 884.55,434.00 889.38,434.00 894.21,434.00 899.03,434.00 903.86,434.00 908.69,434.00 913.52,434.00 918.34,434.00 923.17,434.00 928.00,434.00" />
<circle cx="928.00" cy="434.00" r="5" fill="#d94841" stroke="#ffffff" stroke-width="2" />
<text x="928.00" y="422.00" text-anchor="middle" font-size="12" fill="#7b341e">4.63037e-06</text>
</svg>